<?xml version="1.0" encoding="UTF-8" standalone="no"?><!DOCTYPE svg PUBLIC "-//W3C//DTD SVG 1.1//EN" "http://www.w3.org/Graphics/SVG/1.1/DTD/svg11.dtd"><svg width="100%" height="100%" viewBox="0 0 472 528" version="1.1" xmlns="http://www.w3.org/2000/svg" xmlns:xlink="http://www.w3.org/1999/xlink" xml:space="preserve" xmlns:serif="http://www.serif.com/" style="fill-rule:evenodd;clip-rule:evenodd;stroke-linejoin:round;stroke-miterlimit:2;"><path d="M259.301,9.709c-13.172,-7.605 -29.402,-7.604 -42.574,0.001l-188.705,108.958c-13.172,7.605 -21.286,21.661 -21.286,36.871l0.008,217.902c0,15.21 8.115,29.265 21.288,36.87l188.712,108.944c13.173,7.605 29.402,7.604 42.575,-0.001l188.705,-108.958c13.172,-7.605 21.286,-21.66 21.286,-36.871l-0.008,-217.902c0,-15.21 -8.115,-29.265 -21.288,-36.869l-188.713,-108.945Zm-21.285,36.871l188.712,108.945l0.007,217.902l-188.705,108.957l-188.712,-108.944l-0.007,-217.903l188.705,-108.957Z" style="fill:#d4d5d8;"/><path d="M397.748,359.32l-158.623,90.414l-158.218,-90.403l316.835,-184.527l0.006,184.516Z" style="fill:#52a8e6;"/><path d="M80.907,359.331l158.629,90.403l158.212,-90.414l-316.847,-184.505l0.006,184.516Z" style="fill:#ff00f3;fill-opacity:0.45;"/><path d="M97.469,158.488l140.204,-83.059l140.744,81.748l-138.674,80.209l-142.274,-78.898Z" style="fill:#00ff0e;fill-opacity:0.49;"/><path d="M240.172,267.039l-157.5,91.5" style="fill:none;"/></svg>